<mxfile host="app.diagrams.net" modified="2022-08-02T13:07:49.216Z" agent="5.0 (Windows NT 10.0; Win64; x64) AppleWebKit/537.36 (KHTML, like Gecko) Chrome/103.0.0.0 Safari/537.36" etag="RyMb-8SxkqA1xADicOOL" version="20.2.2" type="github">
  <diagram id="sFSRVDQLrxexVlO3iqMX" name="Page-1">
    <mxGraphModel dx="1038" dy="547" grid="1" gridSize="10" guides="1" tooltips="1" connect="1" arrows="1" fold="1" page="1" pageScale="1" pageWidth="850" pageHeight="1100" math="0" shadow="0">
      <root>
        <mxCell id="0" />
        <mxCell id="1" parent="0" />
        <mxCell id="X0XHlHytPjnUMMTvBUn2-3" style="edgeStyle=orthogonalEdgeStyle;rounded=0;orthogonalLoop=1;jettySize=auto;html=1;" edge="1" parent="1" source="X0XHlHytPjnUMMTvBUn2-1" target="X0XHlHytPjnUMMTvBUn2-2">
          <mxGeometry relative="1" as="geometry" />
        </mxCell>
        <mxCell id="X0XHlHytPjnUMMTvBUn2-1" value="Teste de estanqueidade com gás (item I.6 API 19G2/ ISO 17078-2)" style="whiteSpace=wrap;html=1;aspect=fixed;" vertex="1" parent="1">
          <mxGeometry x="180" y="260" width="110" height="110" as="geometry" />
        </mxCell>
        <mxCell id="X0XHlHytPjnUMMTvBUn2-4" style="edgeStyle=orthogonalEdgeStyle;rounded=0;orthogonalLoop=1;jettySize=auto;html=1;entryX=0.5;entryY=1;entryDx=0;entryDy=0;" edge="1" parent="1" source="X0XHlHytPjnUMMTvBUn2-2" target="X0XHlHytPjnUMMTvBUn2-1">
          <mxGeometry relative="1" as="geometry">
            <Array as="points">
              <mxPoint x="450" y="390" />
              <mxPoint x="235" y="390" />
            </Array>
          </mxGeometry>
        </mxCell>
        <mxCell id="X0XHlHytPjnUMMTvBUn2-2" value="Injeção de salmoura&amp;nbsp;" style="whiteSpace=wrap;html=1;aspect=fixed;" vertex="1" parent="1">
          <mxGeometry x="390" y="260" width="110" height="110" as="geometry" />
        </mxCell>
        <mxCell id="X0XHlHytPjnUMMTvBUn2-5" value="&lt;ol&gt;&lt;li&gt;500 bbl de Salmoura à 1bbl/min&amp;nbsp;&lt;/li&gt;&lt;li&gt;600 bbl de Salmoura à 1,5bbl/min&lt;br&gt;&lt;/li&gt;&lt;li&gt;600 bbl de Salmoura à 2bbl/min&lt;br&gt;&lt;/li&gt;&lt;/ol&gt;" style="text;strokeColor=none;fillColor=none;html=1;whiteSpace=wrap;verticalAlign=middle;overflow=hidden;" vertex="1" parent="1">
          <mxGeometry x="510" y="275" width="240" height="80" as="geometry" />
        </mxCell>
        <mxCell id="X0XHlHytPjnUMMTvBUn2-6" value="1" style="text;html=1;strokeColor=none;fillColor=none;align=center;verticalAlign=middle;whiteSpace=wrap;rounded=0;" vertex="1" parent="1">
          <mxGeometry x="310" y="290" width="60" height="30" as="geometry" />
        </mxCell>
        <mxCell id="X0XHlHytPjnUMMTvBUn2-7" value="2" style="text;html=1;strokeColor=none;fillColor=none;align=center;verticalAlign=middle;whiteSpace=wrap;rounded=0;" vertex="1" parent="1">
          <mxGeometry x="310" y="390" width="60" height="30" as="geometry" />
        </mxCell>
      </root>
    </mxGraphModel>
  </diagram>
</mxfile>
